<?xml version="1.0" encoding="utf-8"?>
<!-- Generator: Adobe Illustrator 26.0.0, SVG Export Plug-In . SVG Version: 6.00 Build 0)  -->
<svg version="1.1" id="Capa_1" xmlns="http://www.w3.org/2000/svg" xmlns:xlink="http://www.w3.org/1999/xlink" x="0px" y="0px"
	 viewBox="0 0 180 180" style="enable-background:new 0 0 180 180;" xml:space="preserve">
<style type="text/css">
	.st0{fill:#FFFFFF;}
</style>
<g>
	<g>
		<path class="st0" d="M-3553.7-165c3.9-10.7,8.3-21.1,15.3-31c4.2,5.8,6.1,12.3,8.8,18.3c36.3,83.2,72.4,166.5,108.5,249.7
			c10.3,23.6,20.5,47.3,30.6,71c1.1,2.5,4.4,6.3-2.5,6.3c-33.4-0.1-66.8-0.1-100.2-0.1c-0.4,0-0.8-0.3-1.7-0.7
			c5.4-4.7,10.7-9.2,15.8-13.9c11.2-10.2,13.8-22.8,9.8-36.9c-7.1-24.9-18-48.2-28.1-71.9c-16.4-38.5-34-76.4-51.5-114.4
			c-5.9-12.8-9.3-26.4-9.5-40.6c-0.4-9.9-2-19.9,1.3-29.6C-3556.7-161.4-3555.5-163.4-3553.7-165z"/>
		<path class="st0" d="M-3560.6-140.6c-6.7,19.7-16.4,38.3-22,58.4c-4.4,15.7-5.2,31.2,0.7,46.7c0.7,2,1.9,3.9,0.9,6.1
			c-38.7-20.8-80.5-15.2-113.6,16.1C-3715,6-3728,29.4-3730.2,58.1c-2.2,28.6,7.5,52.7,28.1,72.4c-2.8,2.1-4.2,0.9-5.6,0.1
			c-35-20.7-54-51.1-53.7-92.1c0.5-55.7,47-105.4,108.6-102.5c11.2,0.5,22,3.1,32.5,7.1c1.5,0.6,3.1,2,4.6,0.6c1.9-1.8,0-3.5-0.9-5
			c-14.7-24.1-12.5-48.6-1.6-73.2c6-13.6,12.4-27.1,18.3-40.8c6-14,13.5-28.3-2.9-41.6c24.1-0.9,44.8,19.5,46.2,44.2
			c0.1,2.6,0.2,5.2,0.3,7.8c0.7,1.1,0.7,2.2,0.2,3.3C-3557.5-154.7-3557.3-147.3-3560.6-140.6z"/>
		<path class="st0" d="M-3642.2,149.2c-10.6,0.4-19.1-3.3-27.2-8.6c-3.6-2.3-3.4-3.9,0.1-6c18.1-10.9,27.7-27.8,33.5-47.5
			c4.7-15.8,7.9-32.1,18.5-45.7c12.7-16.2,29.4-23.1,46.4-18.2c10.6,3,10.9,3.7,6.4,13.9c-11.5,26.4-22.9,52.9-34.6,79.2
			c-4.2,9.4-10.1,17.6-18.3,24.1C-3624.8,146.5-3633.1,150.1-3642.2,149.2z"/>
	</g>
	<g>
		<path class="st0" d="M-3854.4,271v-59.1c0-3.6,1.3-6.7,3.8-9.2c2.5-2.5,5.6-3.8,9.2-3.8h46c3.6,0,6.7,1.3,9.3,3.8
			c2.6,2.5,3.9,5.6,3.9,9.2V271h-10.9v-25.2h-50.4V271H-3854.4z M-3843.5,234.9h50.4v-21.5c0-1.5-0.2-2.5-0.7-3
			c-0.5-0.5-1.5-0.8-3-0.8h-43c-1.5,0-2.5,0.3-3,0.8s-0.8,1.5-0.8,3V234.9z"/>
		<path class="st0" d="M-3770.7,271v-72.2h10.8v61.4h61.3V271H-3770.7z"/>
		<path class="st0" d="M-3679.7,271c-3.6,0-6.7-1.3-9.2-3.8c-2.5-2.5-3.8-5.6-3.8-9.2v-46.1c0-3.6,1.3-6.7,3.8-9.2
			c2.5-2.5,5.6-3.8,9.2-3.8h58.9v10.8h-57.4c-1.5,0-2.5,0.3-3,0.8s-0.8,1.5-0.8,3v43.1c0,1.5,0.2,2.5,0.8,3s1.5,0.8,3,0.8h57.4V271
			H-3679.7z"/>
		<path class="st0" d="M-3610.2,271v-59.1c0-3.6,1.3-6.7,3.8-9.2c2.5-2.5,5.6-3.8,9.2-3.8h46c3.6,0,6.7,1.3,9.3,3.8
			c2.6,2.5,3.9,5.6,3.9,9.2V271h-10.9v-25.2h-50.4V271H-3610.2z M-3599.4,234.9h50.4v-21.5c0-1.5-0.2-2.5-0.7-3
			c-0.5-0.5-1.5-0.8-3-0.8h-43c-1.5,0-2.5,0.3-3,0.8s-0.8,1.5-0.8,3V234.9z"/>
		<path class="st0" d="M-3526.7,271v-72.1h12.9l48.3,57.5v-57.5h10.9V271h-12.9l-48.4-57.6V271H-3526.7z"/>
		<path class="st0" d="M-3430.3,271c-3.6,0-6.7-1.3-9.2-3.8c-2.5-2.5-3.8-5.6-3.8-9.2v-46.1c0-3.6,1.3-6.7,3.8-9.2
			c2.5-2.5,5.6-3.8,9.2-3.8h58.9v10.8h-57.4c-1.5,0-2.5,0.3-3,0.8s-0.8,1.5-0.8,3v43.1c0,1.5,0.3,2.5,0.8,3s1.5,0.8,3,0.8h57.4V271
			H-3430.3z"/>
		<path class="st0" d="M-3360.8,271v-72.1h66.1v10.8h-55.2v19.8h44.4v10.8h-44.4v19.8h55.2V271H-3360.8z"/>
	</g>
	<g>
		<path class="st0" d="M-3605.7,358.6v-50.4h7.6v50.4H-3605.7z"/>
		<path class="st0" d="M-3571,358.6v-42.8h-21.4v-7.6h50.4v7.6h-21.4v42.8H-3571z"/>
	</g>
</g>
<g>
	<g>
		<path d="M-3553.7,713c3.9-10.7,8.3-21.1,15.3-31c4.2,5.8,6.1,12.3,8.8,18.3c36.3,83.2,72.4,166.5,108.5,249.7
			c10.3,23.6,20.5,47.3,30.6,71c1.1,2.5,4.4,6.3-2.5,6.3c-33.4-0.1-66.8-0.1-100.2-0.1c-0.4,0-0.8-0.3-1.7-0.7
			c5.4-4.7,10.7-9.2,15.8-13.9c11.2-10.2,13.8-22.8,9.8-36.9c-7.1-24.9-18-48.2-28.1-71.9c-16.4-38.5-34-76.4-51.5-114.4
			c-5.9-12.8-9.3-26.4-9.5-40.6c-0.4-9.9-2-19.9,1.3-29.6C-3556.7,716.6-3555.5,714.6-3553.7,713z"/>
		<path d="M-3560.6,737.4c-6.7,19.7-16.4,38.3-22,58.4c-4.4,15.7-5.2,31.2,0.7,46.7c0.7,2,1.9,3.9,0.9,6.1
			c-38.7-20.8-80.5-15.2-113.6,16.1c-20.4,19.3-33.4,42.7-35.6,71.4c-2.2,28.6,7.5,52.7,28.1,72.4c-2.8,2.1-4.2,0.9-5.6,0.1
			c-35-20.7-54-51.1-53.7-92.1c0.5-55.7,47-105.4,108.6-102.5c11.2,0.5,22,3.1,32.5,7.1c1.5,0.6,3.1,2,4.6,0.6c1.9-1.8,0-3.5-0.9-5
			c-14.7-24.1-12.5-48.6-1.6-73.2c6-13.6,12.4-27.1,18.3-40.8c6-14,13.5-28.3-2.9-41.6c24.1-0.9,44.8,19.5,46.2,44.2
			c0.1,2.6,0.2,5.2,0.3,7.8c0.7,1.1,0.7,2.2,0.2,3.3C-3557.5,723.3-3557.3,730.7-3560.6,737.4z"/>
		<path d="M-3642.2,1027.2c-10.6,0.4-19.1-3.3-27.2-8.6c-3.6-2.3-3.4-3.9,0.1-6c18.1-10.9,27.7-27.8,33.5-47.5
			c4.7-15.8,7.9-32.1,18.5-45.7c12.7-16.2,29.4-23.1,46.4-18.2c10.6,3,10.9,3.7,6.4,13.9c-11.5,26.4-22.9,52.9-34.6,79.2
			c-4.2,9.4-10.1,17.6-18.3,24.1C-3624.8,1024.5-3633.1,1028.1-3642.2,1027.2z"/>
	</g>
	<g>
		<path d="M-3854.4,1149v-59.1c0-3.6,1.3-6.7,3.8-9.2c2.5-2.5,5.6-3.8,9.2-3.8h46c3.6,0,6.7,1.3,9.3,3.8c2.6,2.5,3.9,5.6,3.9,9.2
			v59.1h-10.9v-25.2h-50.4v25.2H-3854.4z M-3843.5,1112.9h50.4v-21.5c0-1.5-0.2-2.5-0.7-3c-0.5-0.5-1.5-0.8-3-0.8h-43
			c-1.5,0-2.5,0.3-3,0.8s-0.8,1.5-0.8,3V1112.9z"/>
		<path d="M-3770.7,1149v-72.2h10.8v61.4h61.3v10.8H-3770.7z"/>
		<path d="M-3679.7,1149c-3.6,0-6.7-1.3-9.2-3.8c-2.5-2.5-3.8-5.6-3.8-9.2v-46.1c0-3.6,1.3-6.7,3.8-9.2c2.5-2.5,5.6-3.8,9.2-3.8
			h58.9v10.8h-57.4c-1.5,0-2.5,0.3-3,0.8s-0.8,1.5-0.8,3v43.1c0,1.5,0.2,2.5,0.8,3s1.5,0.8,3,0.8h57.4v10.8H-3679.7z"/>
		<path d="M-3610.2,1149v-59.1c0-3.6,1.3-6.7,3.8-9.2c2.5-2.5,5.6-3.8,9.2-3.8h46c3.6,0,6.7,1.3,9.3,3.8c2.6,2.5,3.9,5.6,3.9,9.2
			v59.1h-10.9v-25.2h-50.4v25.2H-3610.2z M-3599.4,1112.9h50.4v-21.5c0-1.5-0.2-2.5-0.7-3c-0.5-0.5-1.5-0.8-3-0.8h-43
			c-1.5,0-2.5,0.3-3,0.8s-0.8,1.5-0.8,3V1112.9z"/>
		<path d="M-3526.7,1149v-72.1h12.9l48.3,57.5v-57.5h10.9v72.1h-12.9l-48.4-57.6v57.6H-3526.7z"/>
		<path d="M-3430.3,1149c-3.6,0-6.7-1.3-9.2-3.8c-2.5-2.5-3.8-5.6-3.8-9.2v-46.1c0-3.6,1.3-6.7,3.8-9.2c2.5-2.5,5.6-3.8,9.2-3.8
			h58.9v10.8h-57.4c-1.5,0-2.5,0.3-3,0.8s-0.8,1.5-0.8,3v43.1c0,1.5,0.3,2.5,0.8,3s1.5,0.8,3,0.8h57.4v10.8H-3430.3z"/>
		<path d="M-3360.8,1149v-72.1h66.1v10.8h-55.2v19.8h44.4v10.8h-44.4v19.8h55.2v10.8H-3360.8z"/>
	</g>
	<g>
		<path d="M-3605.7,1236.6v-50.4h7.6v50.4H-3605.7z"/>
		<path d="M-3571,1236.6v-42.8h-21.4v-7.6h50.4v7.6h-21.4v42.8H-3571z"/>
	</g>
</g>
<g>
	<g>
		<path d="M-3553.7,1589c3.9-10.7,8.3-21.1,15.3-31c4.2,5.8,6.1,12.3,8.8,18.3c36.3,83.2,72.4,166.5,108.5,249.7
			c10.3,23.6,20.5,47.3,30.6,71c1.1,2.5,4.4,6.3-2.5,6.3c-33.4-0.1-66.8-0.1-100.2-0.1c-0.4,0-0.8-0.3-1.7-0.7
			c5.4-4.7,10.7-9.2,15.8-13.9c11.2-10.2,13.8-22.8,9.8-36.9c-7.1-24.9-18-48.2-28.1-71.9c-16.4-38.5-34-76.4-51.5-114.4
			c-5.9-12.8-9.3-26.4-9.5-40.6c-0.4-9.9-2-19.9,1.3-29.6C-3556.7,1592.6-3555.5,1590.6-3553.7,1589z"/>
		<path d="M-3560.6,1613.4c-6.7,19.7-16.4,38.3-22,58.4c-4.4,15.7-5.2,31.2,0.7,46.7c0.7,2,1.9,3.9,0.9,6.1
			c-38.7-20.8-80.5-15.2-113.6,16.1c-20.4,19.3-33.4,42.7-35.6,71.4c-2.2,28.6,7.5,52.7,28.1,72.4c-2.8,2.1-4.2,0.9-5.6,0.1
			c-35-20.7-54-51.1-53.7-92.1c0.5-55.7,47-105.4,108.6-102.5c11.2,0.5,22,3.1,32.5,7.1c1.5,0.6,3.1,2,4.6,0.6c1.9-1.8,0-3.5-0.9-5
			c-14.7-24.1-12.5-48.6-1.6-73.2c6-13.6,12.4-27.1,18.3-40.8c6-14,13.5-28.3-2.9-41.6c24.1-0.9,44.8,19.5,46.2,44.2
			c0.1,2.6,0.2,5.2,0.3,7.8c0.7,1.1,0.7,2.2,0.2,3.3C-3557.5,1599.3-3557.3,1606.7-3560.6,1613.4z"/>
		<path d="M-3642.2,1903.2c-10.6,0.4-19.1-3.3-27.2-8.6c-3.6-2.3-3.4-3.9,0.1-6c18.1-10.9,27.7-27.8,33.5-47.5
			c4.7-15.8,7.9-32.1,18.5-45.7c12.7-16.2,29.4-23.1,46.4-18.2c10.6,3,10.9,3.7,6.4,13.9c-11.5,26.4-22.9,52.9-34.6,79.2
			c-4.2,9.4-10.1,17.6-18.3,24.1C-3624.8,1900.5-3633.1,1904.1-3642.2,1903.2z"/>
	</g>
	<g>
		<g>
			<path d="M-3854.4,2025v-59.1c0-3.6,1.3-6.7,3.8-9.2c2.5-2.5,5.6-3.8,9.2-3.8h46c3.6,0,6.7,1.3,9.3,3.8c2.6,2.5,3.9,5.6,3.9,9.2
				v59.1h-10.9v-25.2h-50.4v25.2H-3854.4z M-3843.5,1988.9h50.4v-21.5c0-1.5-0.2-2.5-0.7-3c-0.5-0.5-1.5-0.8-3-0.8h-43
				c-1.5,0-2.5,0.3-3,0.8s-0.8,1.5-0.8,3V1988.9z"/>
			<path d="M-3770.7,2025v-72.2h10.8v61.4h61.3v10.8H-3770.7z"/>
			<path d="M-3679.7,2025c-3.6,0-6.7-1.3-9.2-3.8c-2.5-2.5-3.8-5.6-3.8-9.2v-46.1c0-3.6,1.3-6.7,3.8-9.2c2.5-2.5,5.6-3.8,9.2-3.8
				h58.9v10.8h-57.4c-1.5,0-2.5,0.3-3,0.8s-0.8,1.5-0.8,3v43.1c0,1.5,0.2,2.5,0.8,3s1.5,0.8,3,0.8h57.4v10.8H-3679.7z"/>
			<path d="M-3610.2,2025v-59.1c0-3.6,1.3-6.7,3.8-9.2c2.5-2.5,5.6-3.8,9.2-3.8h46c3.6,0,6.7,1.3,9.3,3.8c2.6,2.5,3.9,5.6,3.9,9.2
				v59.1h-10.9v-25.2h-50.4v25.2H-3610.2z M-3599.4,1988.9h50.4v-21.5c0-1.5-0.2-2.5-0.7-3c-0.5-0.5-1.5-0.8-3-0.8h-43
				c-1.5,0-2.5,0.3-3,0.8s-0.8,1.5-0.8,3V1988.9z"/>
			<path d="M-3526.7,2025v-72.1h12.9l48.3,57.5v-57.5h10.9v72.1h-12.9l-48.4-57.6v57.6H-3526.7z"/>
			<path d="M-3430.3,2025c-3.6,0-6.7-1.3-9.2-3.8c-2.5-2.5-3.8-5.6-3.8-9.2v-46.1c0-3.6,1.3-6.7,3.8-9.2c2.5-2.5,5.6-3.8,9.2-3.8
				h58.9v10.8h-57.4c-1.5,0-2.5,0.3-3,0.8s-0.8,1.5-0.8,3v43.1c0,1.5,0.3,2.5,0.8,3s1.5,0.8,3,0.8h57.4v10.8H-3430.3z"/>
			<path d="M-3360.8,2025v-72.1h66.1v10.8h-55.2v19.8h44.4v10.8h-44.4v19.8h55.2v10.8H-3360.8z"/>
		</g>
	</g>
	<g>
		<g>
			<path d="M-3605.4,2112.6v-50.4h7.6v50.4H-3605.4z"/>
			<path d="M-3571.3,2112.6v-42.8h-21.4v-7.6h50.4v7.6h-21.4v42.8H-3571.3z"/>
		</g>
	</g>
</g>
<g>
	<path class="st0" d="M-2272.4,194.7c5.3-14.5,11.3-28.7,20.9-42.3c5.7,7.9,8.4,16.7,12,25c49.4,113.5,98.7,227,148,340.6
		c14,32.2,27.9,64.5,41.7,96.8c1.5,3.5,6,8.6-3.4,8.6c-45.5-0.2-91.1-0.1-136.6-0.2c-0.6,0-1.1-0.4-2.3-1
		c7.4-6.4,14.6-12.5,21.6-18.9c15.2-13.9,18.8-31.1,13.3-50.3c-9.6-33.9-24.5-65.8-38.3-98.1c-22.4-52.5-46.4-104.3-70.3-156.1
		c-8-17.5-12.6-36-12.9-55.4c-0.5-13.5-2.8-27.1,1.8-40.4C-2276.6,199.6-2274.9,196.9-2272.4,194.7z"/>
	<path class="st0" d="M-2281.9,228c-9.1,26.9-22.3,52.2-30,79.6c-6,21.4-7,42.5,0.9,63.7c1,2.7,2.6,5.3,1.2,8.4
		c-52.8-28.4-109.8-20.8-155,22c-27.8,26.3-45.5,58.3-48.5,97.4c-3,39,10.2,71.8,38.4,98.7c-3.8,2.8-5.7,1.3-7.6,0.1
		c-47.8-28.2-73.7-69.7-73.2-125.6c0.7-76,64.1-143.8,148.1-139.8c15.2,0.7,30,4.3,44.3,9.7c2,0.8,4.3,2.7,6.3,0.8
		c2.6-2.5,0.1-4.8-1.2-6.8c-20-32.9-17.1-66.3-2.1-99.9c8.2-18.6,16.9-37,24.9-55.6c8.2-19.1,18.4-38.6-4-56.7
		c32.9-1.3,61.1,26.6,63,60.2c0.2,3.5,0.3,7.1,0.5,10.6c0.9,1.4,0.9,2.9,0.3,4.5C-2277.6,208.8-2277.4,218.9-2281.9,228z"/>
	<path class="st0" d="M-2393.1,623.3c-14.5,0.6-26.1-4.6-37.1-11.7c-4.8-3.1-4.6-5.3,0.1-8.1c24.7-14.8,37.7-37.9,45.7-64.7
		c6.4-21.5,10.8-43.8,25.2-62.3c17.3-22.1,40.1-31.5,63.3-24.9c14.4,4.1,14.8,5.1,8.8,18.9c-15.7,36-31.3,72.1-47.2,108.1
		c-5.7,12.8-13.8,24-24.9,32.8C-2369.4,619.5-2380.7,624.5-2393.1,623.3z"/>
</g>
<g>
	<path d="M-2272.4-353.3c5.3-14.5,11.3-28.7,20.9-42.3c5.7,7.9,8.4,16.7,12,25c49.4,113.5,98.7,227,148,340.6
		c14,32.2,27.9,64.5,41.7,96.8c1.5,3.5,6,8.6-3.4,8.6c-45.5-0.2-91.1-0.1-136.6-0.2c-0.6,0-1.1-0.4-2.3-1
		c7.4-6.4,14.6-12.5,21.6-18.9c15.2-13.9,18.8-31.1,13.3-50.3c-9.6-33.9-24.5-65.8-38.3-98.1c-22.4-52.5-46.4-104.3-70.3-156.1
		c-8-17.5-12.6-36-12.9-55.4c-0.5-13.5-2.8-27.1,1.8-40.4C-2276.6-348.4-2274.9-351.1-2272.4-353.3z"/>
	<path d="M-2281.9-320c-9.1,26.9-22.3,52.2-30,79.6c-6,21.4-7,42.5,0.9,63.7c1,2.7,2.6,5.3,1.2,8.4c-52.8-28.4-109.8-20.8-155,22
		c-27.8,26.3-45.5,58.3-48.5,97.4c-3,39,10.2,71.8,38.4,98.7c-3.8,2.8-5.7,1.3-7.6,0.1c-47.8-28.2-73.7-69.7-73.2-125.6
		c0.7-76,64.1-143.8,148.1-139.8c15.2,0.7,30,4.3,44.3,9.7c2,0.8,4.3,2.7,6.3,0.8c2.6-2.5,0.1-4.8-1.2-6.8
		c-20-32.9-17.1-66.3-2.1-99.9c8.2-18.6,16.9-37,24.9-55.6c8.2-19.1,18.4-38.6-4-56.7c32.9-1.3,61.1,26.6,63,60.2
		c0.2,3.5,0.3,7.1,0.5,10.6c0.9,1.4,0.9,2.9,0.3,4.5C-2277.6-339.2-2277.4-329.1-2281.9-320z"/>
	<path d="M-2393.1,75.3c-14.5,0.6-26.1-4.6-37.1-11.7c-4.8-3.1-4.6-5.3,0.1-8.1c24.7-14.8,37.7-37.9,45.7-64.7
		c6.4-21.5,10.8-43.8,25.2-62.3c17.3-22.1,40.1-31.5,63.3-24.9c14.4,4.1,14.8,5.1,8.8,18.9c-15.7,36-31.3,72.1-47.2,108.1
		c-5.7,12.8-13.8,24-24.9,32.8C-2369.4,71.5-2380.7,76.5-2393.1,75.3z"/>
</g>
<g>
	<path class="st0" d="M-1308.7,587.7c10.6-29.1,22.6-57.5,41.9-84.6c11.5,15.8,16.7,33.5,23.9,50c99,227.2,197.7,454.6,296.4,681.9
		c28,64.5,55.9,129.1,83.5,193.8c3,6.9,12.1,17.2-6.8,17.1c-91.2-0.4-182.4-0.2-273.6-0.4c-1.1,0-2.2-0.9-4.7-2
		c14.7-12.9,29.2-25.1,43.1-37.8c30.5-27.8,37.6-62.3,26.7-100.8c-19.3-67.9-49.1-131.8-76.7-196.4
		c-44.9-105.1-93-208.7-140.7-312.5c-16.1-35-25.3-72.1-25.9-111c-1-27-5.5-54.2,3.6-80.9C-1317.1,597.5-1313.7,592.1-1308.7,587.7z
		"/>
	<path class="st0" d="M-1327.7,654.4c-18.2,53.8-44.7,104.5-60,159.5c-11.9,42.8-14.1,85.2,1.8,127.4c2,5.3,5.1,10.6,2.5,16.7
		c-105.8-56.9-219.8-41.6-310.3,44.1c-55.7,52.7-91.1,116.6-97.1,194.9c-6,78.1,20.5,143.8,76.8,197.6c-7.7,5.6-11.3,2.5-15.2,0.2
		c-95.7-56.6-147.6-139.5-146.6-251.4c1.3-152.2,128.4-288,296.5-280c30.5,1.4,60,8.6,88.6,19.4c4.1,1.5,8.6,5.4,12.6,1.6
		c5.3-4.9,0.1-9.6-2.3-13.6c-40-65.9-34.1-132.7-4.3-200c16.5-37.2,33.9-74,49.9-111.4c16.4-38.2,36.9-77.2-7.9-113.6
		c65.9-2.6,122.3,53.2,126.2,120.6c0.4,7.1,0.6,14.2,0.9,21.3c1.8,2.9,1.9,5.9,0.6,9C-1319.1,616-1318.7,636.2-1327.7,654.4z"/>
	<path class="st0" d="M-1550.5,1445.9c-28.9,1.2-52.2-9.1-74.3-23.4c-9.7-6.3-9.2-10.6,0.2-16.3c49.5-29.7,75.5-75.9,91.5-129.6
		c12.8-43.1,21.6-87.7,50.5-124.7c34.6-44.2,80.3-63,126.8-49.8c28.9,8.2,29.7,10.1,17.5,37.9c-31.5,72.1-62.7,144.4-94.4,216.4
		c-11.3,25.7-27.6,48.1-49.9,65.7C-1503,1438.3-1525.6,1448.3-1550.5,1445.9z"/>
</g>
<g>
	<path d="M-1308.7-544.3c10.6-29.1,22.6-57.5,41.9-84.6c11.5,15.8,16.7,33.5,23.9,50c99,227.2,197.7,454.6,296.4,681.9
		c28,64.5,55.9,129.1,83.5,193.8c3,6.9,12.1,17.2-6.8,17.1c-91.2-0.4-182.4-0.2-273.6-0.4c-1.1,0-2.2-0.9-4.7-2
		c14.7-12.9,29.2-25.1,43.1-37.8c30.5-27.8,37.6-62.3,26.7-100.8c-19.3-67.9-49.1-131.8-76.7-196.4
		c-44.9-105.1-93-208.7-140.7-312.5c-16.1-35-25.3-72.1-25.9-111c-1-27-5.5-54.2,3.6-80.9C-1317.1-534.5-1313.7-539.9-1308.7-544.3z
		"/>
	<path d="M-1327.7-477.6c-18.2,53.8-44.7,104.5-60,159.5c-11.9,42.8-14.1,85.2,1.8,127.4c2,5.3,5.1,10.6,2.5,16.7
		c-105.8-56.9-219.8-41.6-310.3,44.1c-55.7,52.7-91.1,116.6-97.1,194.9c-6,78.1,20.5,143.8,76.8,197.6c-7.7,5.6-11.3,2.5-15.2,0.2
		c-95.7-56.6-147.6-139.5-146.6-251.4c1.3-152.2,128.4-288,296.5-280c30.5,1.4,60,8.6,88.6,19.4c4.1,1.5,8.6,5.4,12.6,1.6
		c5.3-4.9,0.1-9.6-2.3-13.6c-40-65.9-34.1-132.7-4.3-200c16.5-37.2,33.9-74,49.9-111.4c16.4-38.2,36.9-77.2-7.9-113.6
		c65.9-2.6,122.3,53.2,126.2,120.6c0.4,7.1,0.6,14.2,0.9,21.3c1.8,2.9,1.9,5.9,0.6,9C-1319.1-516-1318.7-495.8-1327.7-477.6z"/>
	<path d="M-1550.5,313.9c-28.9,1.2-52.2-9.1-74.3-23.4c-9.7-6.3-9.2-10.6,0.2-16.3c49.5-29.7,75.5-75.9,91.5-129.6
		c12.8-43.1,21.6-87.7,50.5-124.7c34.6-44.2,80.3-63,126.8-49.8c28.9,8.2,29.7,10.1,17.5,37.9c-31.5,72.1-62.7,144.4-94.4,216.4
		c-11.3,25.7-27.6,48.1-49.9,65.7C-1503,306.3-1525.6,316.3-1550.5,313.9z"/>
</g>
<g>
	<path class="st0" d="M100.9-266.3c2-5.5,4.2-10.8,7.9-15.9c2.2,3,3.1,6.3,4.5,9.4c18.6,42.6,37.1,85.3,55.6,128
		c5.3,12.1,10.5,24.2,15.7,36.4c0.6,1.3,2.3,3.2-1.3,3.2c-17.1-0.1-34.2,0-51.3-0.1c-0.2,0-0.4-0.2-0.9-0.4c2.8-2.4,5.5-4.7,8.1-7.1
		c5.7-5.2,7.1-11.7,5-18.9c-3.6-12.7-9.2-24.7-14.4-36.9c-8.4-19.7-17.4-39.2-26.4-58.7c-3-6.6-4.8-13.5-4.9-20.8
		c-0.2-5.1-1-10.2,0.7-15.2C99.4-264.4,100-265.4,100.9-266.3z"/>
	<path class="st0" d="M97.4-253.7c-3.4,10.1-8.4,19.6-11.3,29.9c-2.2,8-2.6,16,0.3,23.9c0.4,1,1,2,0.5,3.1
		c-19.9-10.7-41.2-7.8-58.2,8.3c-10.5,9.9-17.1,21.9-18.2,36.6c-1.1,14.7,3.8,27,14.4,37.1c-1.4,1.1-2.1,0.5-2.9,0
		c-18-10.6-27.7-26.2-27.5-47.2c0.3-28.6,24.1-54,55.6-52.5c5.7,0.3,11.3,1.6,16.6,3.6c0.8,0.3,1.6,1,2.4,0.3c1-0.9,0-1.8-0.4-2.6
		c-7.5-12.4-6.4-24.9-0.8-37.5c3.1-7,6.4-13.9,9.4-20.9c3.1-7.2,6.9-14.5-1.5-21.3c12.4-0.5,23,10,23.7,22.6c0.1,1.3,0.1,2.7,0.2,4
		c0.3,0.5,0.3,1.1,0.1,1.7C99-260.9,99.1-257.1,97.4-253.7z"/>
	<path class="st0" d="M55.6-105.2c-5.4,0.2-9.8-1.7-14-4.4c-1.8-1.2-1.7-2,0-3.1c9.3-5.6,14.2-14.2,17.2-24.3
		c2.4-8.1,4-16.5,9.5-23.4c6.5-8.3,15.1-11.8,23.8-9.3c5.4,1.5,5.6,1.9,3.3,7.1c-5.9,13.5-11.8,27.1-17.7,40.6
		c-2.1,4.8-5.2,9-9.4,12.3C64.5-106.6,60.2-104.7,55.6-105.2z"/>
</g>
<g>
	<path class="st0" d="M100.2,238.2c1.9-5.1,4-10.1,7.3-14.8c2,2.8,2.9,5.9,4.2,8.8c17.4,39.8,34.7,79.7,52,119.5
		c4.9,11.3,9.8,22.6,14.6,34c0.5,1.2,2.1,3-1.2,3c-16-0.1-32,0-48-0.1c-0.2,0-0.4-0.2-0.8-0.3c2.6-2.3,5.1-4.4,7.6-6.6
		c5.3-4.9,6.6-10.9,4.7-17.7c-3.4-11.9-8.6-23.1-13.5-34.4c-7.9-18.4-16.3-36.6-24.7-54.8c-2.8-6.1-4.4-12.6-4.5-19.5
		c-0.2-4.7-1-9.5,0.6-14.2C98.8,239.9,99.3,239,100.2,238.2z"/>
	<path class="st0" d="M96.9,249.9c-3.2,9.4-7.8,18.3-10.5,28c-2.1,7.5-2.5,14.9,0.3,22.3c0.4,0.9,0.9,1.9,0.4,2.9
		c-18.5-10-38.5-7.3-54.4,7.7c-9.8,9.2-16,20.4-17,34.2c-1.1,13.7,3.6,25.2,13.5,34.6c-1.3,1-2,0.4-2.7,0
		c-16.8-9.9-25.9-24.5-25.7-44.1c0.2-26.7,22.5-50.5,52-49.1c5.3,0.3,10.5,1.5,15.5,3.4c0.7,0.3,1.5,0.9,2.2,0.3
		c0.9-0.9,0-1.7-0.4-2.4c-7-11.5-6-23.3-0.7-35.1c2.9-6.5,5.9-13,8.8-19.5c2.9-6.7,6.5-13.5-1.4-19.9c11.6-0.5,21.4,9.3,22.1,21.1
		c0.1,1.2,0.1,2.5,0.2,3.7c0.3,0.5,0.3,1,0.1,1.6C98.4,243.1,98.5,246.7,96.9,249.9z"/>
	<path class="st0" d="M57.8,388.6c-5.1,0.2-9.1-1.6-13-4.1c-1.7-1.1-1.6-1.9,0-2.9c8.7-5.2,13.2-13.3,16-22.7
		c2.2-7.6,3.8-15.4,8.8-21.9c6.1-7.8,14.1-11.1,22.2-8.7c5.1,1.4,5.2,1.8,3.1,6.6c-5.5,12.6-11,25.3-16.6,37.9
		c-2,4.5-4.8,8.4-8.7,11.5C66.2,387.3,62.2,389.1,57.8,388.6z"/>
</g>
<g>
	<path d="M100.2,27.2c1.9-5.1,4-10.1,7.3-14.8c2,2.8,2.9,5.9,4.2,8.8c17.4,39.8,34.7,79.7,52,119.5c4.9,11.3,9.8,22.6,14.6,34
		c0.5,1.2,2.1,3-1.2,3c-16-0.1-32,0-48-0.1c-0.2,0-0.4-0.2-0.8-0.3c2.6-2.3,5.1-4.4,7.6-6.6c5.3-4.9,6.6-10.9,4.7-17.7
		c-3.4-11.9-8.6-23.1-13.5-34.4c-7.9-18.4-16.3-36.6-24.7-54.8c-2.8-6.1-4.4-12.6-4.5-19.5c-0.2-4.7-1-9.5,0.6-14.2
		C98.8,28.9,99.3,28,100.2,27.2z"/>
	<path d="M96.9,38.9c-3.2,9.4-7.8,18.3-10.5,28c-2.1,7.5-2.5,14.9,0.3,22.3c0.4,0.9,0.9,1.9,0.4,2.9c-18.5-10-38.5-7.3-54.4,7.7
		c-9.8,9.2-16,20.4-17,34.2c-1.1,13.7,3.6,25.2,13.5,34.6c-1.3,1-2,0.4-2.7,0c-16.8-9.9-25.9-24.5-25.7-44.1
		c0.2-26.7,22.5-50.5,52-49.1c5.3,0.3,10.5,1.5,15.5,3.4c0.7,0.3,1.5,0.9,2.2,0.3c0.9-0.9,0-1.7-0.4-2.4c-7-11.5-6-23.3-0.7-35.1
		c2.9-6.5,5.9-13,8.8-19.5c2.9-6.7,6.5-13.5-1.4-19.9c11.6-0.5,21.4,9.3,22.1,21.1c0.1,1.2,0.1,2.5,0.2,3.7c0.3,0.5,0.3,1,0.1,1.6
		C98.4,32.1,98.5,35.7,96.9,38.9z"/>
	<path d="M57.8,177.6c-5.1,0.2-9.1-1.6-13-4.1c-1.7-1.1-1.6-1.9,0-2.9c8.7-5.2,13.2-13.3,16-22.7c2.2-7.6,3.8-15.4,8.8-21.9
		c6.1-7.8,14.1-11.1,22.2-8.7c5.1,1.4,5.2,1.8,3.1,6.6c-5.5,12.6-11,25.3-16.6,37.9c-2,4.5-4.8,8.4-8.7,11.5
		C66.2,176.3,62.2,178.1,57.8,177.6z"/>
</g>
<g>
	<path d="M100.9-514.3c2-5.5,4.2-10.8,7.9-15.9c2.2,3,3.1,6.3,4.5,9.4c18.6,42.6,37.1,85.3,55.6,128c5.3,12.1,10.5,24.2,15.7,36.4
		c0.6,1.3,2.3,3.2-1.3,3.2c-17.1-0.1-34.2,0-51.3-0.1c-0.2,0-0.4-0.2-0.9-0.4c2.8-2.4,5.5-4.7,8.1-7.1c5.7-5.2,7.1-11.7,5-18.9
		c-3.6-12.7-9.2-24.7-14.4-36.9c-8.4-19.7-17.4-39.2-26.4-58.7c-3-6.6-4.8-13.5-4.9-20.8c-0.2-5.1-1-10.2,0.7-15.2
		C99.4-512.4,100-513.4,100.9-514.3z"/>
	<path d="M97.4-501.7c-3.4,10.1-8.4,19.6-11.3,29.9c-2.2,8-2.6,16,0.3,23.9c0.4,1,1,2,0.5,3.1c-19.9-10.7-41.2-7.8-58.2,8.3
		c-10.5,9.9-17.1,21.9-18.2,36.6c-1.1,14.7,3.8,27,14.4,37.1c-1.4,1.1-2.1,0.5-2.9,0c-18-10.6-27.7-26.2-27.5-47.2
		c0.3-28.6,24.1-54,55.6-52.5c5.7,0.3,11.3,1.6,16.6,3.6c0.8,0.3,1.6,1,2.4,0.3c1-0.9,0-1.8-0.4-2.6c-7.5-12.4-6.4-24.9-0.8-37.5
		c3.1-7,6.4-13.9,9.4-20.9c3.1-7.2,6.9-14.5-1.5-21.3c12.4-0.5,23,10,23.7,22.6c0.1,1.3,0.1,2.7,0.2,4c0.3,0.5,0.3,1.1,0.1,1.7
		C99-508.9,99.1-505.1,97.4-501.7z"/>
	<path d="M55.6-353.2c-5.4,0.2-9.8-1.7-14-4.4c-1.8-1.2-1.7-2,0-3.1c9.3-5.6,14.2-14.2,17.2-24.3c2.4-8.1,4-16.5,9.5-23.4
		c6.5-8.3,15.1-11.8,23.8-9.3c5.4,1.5,5.6,1.9,3.3,7.1c-5.9,13.5-11.8,27.1-17.7,40.6c-2.1,4.8-5.2,9-9.4,12.3
		C64.5-354.6,60.2-352.7,55.6-353.2z"/>
</g>
<g>
	<g>
		<path class="st0" d="M-3636.1-1145.4c4-10.9,8.5-21.6,15.7-31.8c4.3,5.9,6.3,12.6,9,18.8c37.2,85.4,74.3,170.9,111.4,256.4
			c10.5,24.3,21,48.6,31.4,72.9c1.1,2.6,4.5,6.5-2.5,6.4c-34.3-0.1-68.6-0.1-102.9-0.1c-0.4,0-0.8-0.3-1.8-0.7
			c5.5-4.8,11-9.4,16.2-14.2c11.5-10.4,14.2-23.4,10-37.9c-7.2-25.5-18.5-49.5-28.9-73.9c-16.9-39.5-34.9-78.5-52.9-117.5
			c-6.1-13.2-9.5-27.1-9.7-41.7c-0.4-10.2-2.1-20.4,1.3-30.4C-3639.2-1141.7-3638-1143.7-3636.1-1145.4z"/>
		<path class="st0" d="M-3643.2-1120.3c-6.8,20.2-16.8,39.3-22.5,60c-4.5,16.1-5.3,32,0.7,47.9c0.8,2,1.9,4,0.9,6.3
			c-39.8-21.4-82.6-15.6-116.7,16.6c-21,19.8-34.3,43.9-36.5,73.3c-2.3,29.4,7.7,54.1,28.9,74.3c-2.9,2.1-4.3,0.9-5.7,0.1
			c-36-21.3-55.5-52.5-55.1-94.5c0.5-57.2,48.3-108.3,111.5-105.3c11.5,0.5,22.6,3.2,33.3,7.3c1.5,0.6,3.2,2,4.7,0.6
			c2-1.9,0-3.6-0.9-5.1c-15.1-24.8-12.8-49.9-1.6-75.2c6.2-14,12.7-27.8,18.8-41.9c6.2-14.4,13.9-29-3-42.7c24.8-1,46,20,47.4,45.3
			c0.2,2.7,0.2,5.3,0.3,8c0.7,1.1,0.7,2.2,0.2,3.4C-3640-1134.7-3639.9-1127.1-3643.2-1120.3z"/>
		<path class="st0" d="M-3727-822.7c-10.9,0.4-19.6-3.4-27.9-8.8c-3.6-2.4-3.5-4,0.1-6.1c18.6-11.2,28.4-28.5,34.4-48.7
			c4.8-16.2,8.1-33,19-46.9c13-16.6,30.2-23.7,47.7-18.7c10.9,3.1,11.2,3.8,6.6,14.3c-11.8,27.1-23.6,54.3-35.5,81.4
			c-4.3,9.7-10.4,18.1-18.8,24.7C-3709.1-825.6-3717.6-821.8-3727-822.7z"/>
	</g>
	<g>
		<path class="st0" d="M-3944.8-697.8v-60.7c0-3.7,1.3-6.9,3.9-9.5c2.6-2.6,5.8-3.9,9.5-3.9h47.2c3.7,0,6.9,1.3,9.5,3.9
			c2.6,2.6,4,5.8,4,9.5v60.7h-11.2v-25.9h-51.7v25.9H-3944.8z M-3933.7-734.8h51.7v-22.1c0-1.5-0.2-2.5-0.7-3
			c-0.5-0.5-1.5-0.8-3.1-0.8h-44.1c-1.5,0-2.5,0.3-3,0.8s-0.8,1.5-0.8,3V-734.8z"/>
		<path class="st0" d="M-3858.9-697.8v-74.2h11.1v63.1h62.9v11.1H-3858.9z"/>
		<path class="st0" d="M-3765.6-697.8c-3.7,0-6.9-1.3-9.5-3.9c-2.6-2.6-3.9-5.8-3.9-9.5v-47.3c0-3.7,1.3-6.9,3.9-9.5
			c2.6-2.6,5.8-3.9,9.5-3.9h60.5v11.1h-58.9c-1.5,0-2.5,0.3-3,0.8c-0.5,0.5-0.8,1.5-0.8,3v44.2c0,1.5,0.3,2.5,0.8,3
			c0.5,0.5,1.5,0.8,3,0.8h58.9v11.1H-3765.6z"/>
		<path class="st0" d="M-3694.2-697.8v-60.7c0-3.7,1.3-6.9,3.9-9.5c2.6-2.6,5.8-3.9,9.5-3.9h47.2c3.7,0,6.9,1.3,9.5,3.9
			c2.6,2.6,4,5.8,4,9.5v60.7h-11.2v-25.9h-51.7v25.9H-3694.2z M-3683.1-734.8h51.7v-22.1c0-1.5-0.2-2.5-0.7-3
			c-0.5-0.5-1.5-0.8-3.1-0.8h-44.1c-1.5,0-2.5,0.3-3,0.8s-0.8,1.5-0.8,3V-734.8z"/>
		<path class="st0" d="M-3608.4-697.8v-74.1h13.3l49.6,59v-59h11.2v74.1h-13.3l-49.7-59.1v59.1H-3608.4z"/>
		<path class="st0" d="M-3509.4-697.8c-3.7,0-6.9-1.3-9.5-3.9c-2.6-2.6-3.9-5.8-3.9-9.5v-47.3c0-3.7,1.3-6.9,3.9-9.5
			c2.6-2.6,5.8-3.9,9.5-3.9h60.5v11.1h-58.9c-1.5,0-2.5,0.3-3,0.8c-0.5,0.5-0.8,1.5-0.8,3v44.2c0,1.5,0.3,2.5,0.8,3
			c0.5,0.5,1.5,0.8,3,0.8h58.9v11.1H-3509.4z"/>
		<path class="st0" d="M-3438.1-697.8v-74.1h67.9v11.1h-56.7v20.4h45.6v11.1h-45.6v20.4h56.7v11.1H-3438.1z"/>
	</g>
	<g>
		<path class="st0" d="M-3689.5-607.7v-51.7h7.8v51.7H-3689.5z"/>
		<path class="st0" d="M-3653.9-607.7v-44h-22v-7.8h51.7v7.8h-22v44H-3653.9z"/>
	</g>
</g>
<g>
	<g>
		<path d="M-3636.1-1782.7c4-10.9,8.5-21.6,15.7-31.8c4.3,5.9,6.3,12.6,9,18.8c37.2,85.4,74.3,170.9,111.4,256.4
			c10.5,24.3,21,48.6,31.4,72.9c1.1,2.6,4.5,6.5-2.5,6.4c-34.3-0.1-68.6-0.1-102.9-0.1c-0.4,0-0.8-0.3-1.8-0.7
			c5.5-4.8,11-9.4,16.2-14.2c11.5-10.4,14.2-23.4,10-37.9c-7.2-25.5-18.5-49.5-28.9-73.9c-16.9-39.5-34.9-78.5-52.9-117.5
			c-6.1-13.2-9.5-27.1-9.7-41.7c-0.4-10.2-2.1-20.4,1.3-30.4C-3639.2-1778.9-3638-1781-3636.1-1782.7z"/>
		<path d="M-3643.2-1757.6c-6.8,20.2-16.8,39.3-22.5,60c-4.5,16.1-5.3,32,0.7,47.9c0.8,2,1.9,4,0.9,6.3
			c-39.8-21.4-82.6-15.6-116.7,16.6c-21,19.8-34.3,43.9-36.5,73.3c-2.3,29.4,7.7,54.1,28.9,74.3c-2.9,2.1-4.3,0.9-5.7,0.1
			c-36-21.3-55.5-52.5-55.1-94.5c0.5-57.2,48.3-108.3,111.5-105.3c11.5,0.5,22.6,3.2,33.3,7.3c1.5,0.6,3.2,2,4.7,0.6
			c2-1.9,0-3.6-0.9-5.1c-15.1-24.8-12.8-49.9-1.6-75.2c6.2-14,12.7-27.8,18.8-41.9c6.2-14.4,13.9-29-3-42.7c24.8-1,46,20,47.4,45.3
			c0.2,2.7,0.2,5.3,0.3,8c0.7,1.1,0.7,2.2,0.2,3.4C-3640-1772-3639.9-1764.4-3643.2-1757.6z"/>
		<path d="M-3727-1460c-10.9,0.4-19.6-3.4-27.9-8.8c-3.6-2.4-3.5-4,0.1-6.1c18.6-11.2,28.4-28.5,34.4-48.7c4.8-16.2,8.1-33,19-46.9
			c13-16.6,30.2-23.7,47.7-18.7c10.9,3.1,11.2,3.8,6.6,14.3c-11.8,27.1-23.6,54.3-35.5,81.4c-4.3,9.7-10.4,18.1-18.8,24.7
			C-3709.1-1462.8-3717.6-1459.1-3727-1460z"/>
	</g>
	<g>
		<path d="M-3944.8-1335v-60.7c0-3.7,1.3-6.9,3.9-9.5c2.6-2.6,5.8-3.9,9.5-3.9h47.2c3.7,0,6.9,1.3,9.5,3.9c2.6,2.6,4,5.8,4,9.5v60.7
			h-11.2v-25.9h-51.7v25.9H-3944.8z M-3933.7-1372.1h51.7v-22.1c0-1.5-0.2-2.5-0.7-3c-0.5-0.5-1.5-0.8-3.1-0.8h-44.1
			c-1.5,0-2.5,0.3-3,0.8c-0.5,0.5-0.8,1.5-0.8,3V-1372.1z"/>
		<path d="M-3858.9-1335v-74.2h11.1v63.1h62.9v11.1H-3858.9z"/>
		<path d="M-3765.6-1335c-3.7,0-6.9-1.3-9.5-3.9c-2.6-2.6-3.9-5.8-3.9-9.5v-47.3c0-3.7,1.3-6.9,3.9-9.5c2.6-2.6,5.8-3.9,9.5-3.9
			h60.5v11.1h-58.9c-1.5,0-2.5,0.3-3,0.8c-0.5,0.5-0.8,1.5-0.8,3v44.2c0,1.5,0.3,2.5,0.8,3c0.5,0.5,1.5,0.8,3,0.8h58.9v11.1H-3765.6
			z"/>
		<path d="M-3694.2-1335v-60.7c0-3.7,1.3-6.9,3.9-9.5c2.6-2.6,5.8-3.9,9.5-3.9h47.2c3.7,0,6.9,1.3,9.5,3.9c2.6,2.6,4,5.8,4,9.5v60.7
			h-11.2v-25.9h-51.7v25.9H-3694.2z M-3683.1-1372.1h51.7v-22.1c0-1.5-0.2-2.5-0.7-3c-0.5-0.5-1.5-0.8-3.1-0.8h-44.1
			c-1.5,0-2.5,0.3-3,0.8c-0.5,0.5-0.8,1.5-0.8,3V-1372.1z"/>
		<path d="M-3608.4-1335v-74.1h13.3l49.6,59v-59h11.2v74.1h-13.3l-49.7-59.1v59.1H-3608.4z"/>
		<path d="M-3509.4-1335c-3.7,0-6.9-1.3-9.5-3.9c-2.6-2.6-3.9-5.8-3.9-9.5v-47.3c0-3.7,1.3-6.9,3.9-9.5c2.6-2.6,5.8-3.9,9.5-3.9
			h60.5v11.1h-58.9c-1.5,0-2.5,0.3-3,0.8c-0.5,0.5-0.8,1.5-0.8,3v44.2c0,1.5,0.3,2.5,0.8,3c0.5,0.5,1.5,0.8,3,0.8h58.9v11.1H-3509.4
			z"/>
		<path d="M-3438.1-1335v-74.1h67.9v11.1h-56.7v20.4h45.6v11.1h-45.6v20.4h56.7v11.1H-3438.1z"/>
	</g>
	<g>
		<path d="M-3689.5-1245v-51.7h7.8v51.7H-3689.5z"/>
		<path d="M-3653.9-1245v-44h-22v-7.8h51.7v7.8h-22v44H-3653.9z"/>
	</g>
</g>
</svg>
