<?xml version="1.0" encoding="utf-8"?>
<!-- Generator: Adobe Illustrator 26.0.0, SVG Export Plug-In . SVG Version: 6.00 Build 0)  -->
<svg version="1.1" id="Capa_1" xmlns="http://www.w3.org/2000/svg" xmlns:xlink="http://www.w3.org/1999/xlink" x="0px" y="0px"
	 viewBox="0 0 192 192" style="enable-background:new 0 0 192 192;" xml:space="preserve">
<style type="text/css">
	.st0{fill:#FFFFFF;}
</style>
<g>
	<g>
		<path class="st0" d="M-3547.7,130c3.9-10.7,8.3-21.1,15.3-31c4.2,5.8,6.1,12.3,8.8,18.3c36.3,83.2,72.4,166.5,108.5,249.7
			c10.3,23.6,20.5,47.3,30.6,71c1.1,2.5,4.4,6.3-2.5,6.3c-33.4-0.1-66.8-0.1-100.2-0.1c-0.4,0-0.8-0.3-1.7-0.7
			c5.4-4.7,10.7-9.2,15.8-13.9c11.2-10.2,13.8-22.8,9.8-36.9c-7.1-24.9-18-48.2-28.1-71.9c-16.4-38.5-34-76.4-51.5-114.4
			c-5.9-12.8-9.3-26.4-9.5-40.6c-0.4-9.9-2-19.9,1.3-29.6C-3550.7,133.6-3549.5,131.6-3547.7,130z"/>
		<path class="st0" d="M-3554.6,154.4c-6.7,19.7-16.4,38.3-22,58.4c-4.4,15.7-5.2,31.2,0.7,46.7c0.7,2,1.9,3.9,0.9,6.1
			c-38.7-20.8-80.5-15.2-113.6,16.1c-20.4,19.3-33.4,42.7-35.6,71.4c-2.2,28.6,7.5,52.7,28.1,72.4c-2.8,2.1-4.2,0.9-5.6,0.1
			c-35-20.7-54-51.1-53.7-92.1c0.5-55.7,47-105.4,108.6-102.5c11.2,0.5,22,3.1,32.5,7.1c1.5,0.6,3.1,2,4.6,0.6c1.9-1.8,0-3.5-0.9-5
			c-14.7-24.1-12.5-48.6-1.6-73.2c6-13.6,12.4-27.1,18.3-40.8c6-14,13.5-28.3-2.9-41.6c24.1-0.9,44.8,19.5,46.2,44.2
			c0.1,2.6,0.2,5.2,0.3,7.8c0.7,1.1,0.7,2.2,0.2,3.3C-3551.5,140.3-3551.3,147.7-3554.6,154.4z"/>
		<path class="st0" d="M-3636.2,444.2c-10.6,0.4-19.1-3.3-27.2-8.6c-3.6-2.3-3.4-3.9,0.1-6c18.1-10.9,27.7-27.8,33.5-47.5
			c4.7-15.8,7.9-32.1,18.5-45.7c12.7-16.2,29.4-23.1,46.4-18.2c10.6,3,10.9,3.7,6.4,13.9c-11.5,26.4-22.9,52.9-34.6,79.2
			c-4.2,9.4-10.1,17.6-18.3,24.1C-3618.8,441.5-3627.1,445.1-3636.2,444.2z"/>
	</g>
	<g>
		<path class="st0" d="M-3848.4,566v-59.1c0-3.6,1.3-6.7,3.8-9.2c2.5-2.5,5.6-3.8,9.2-3.8h46c3.6,0,6.7,1.3,9.3,3.8
			c2.6,2.5,3.9,5.6,3.9,9.2V566h-10.9v-25.2h-50.4V566H-3848.4z M-3837.5,529.9h50.4v-21.5c0-1.5-0.2-2.5-0.7-3
			c-0.5-0.5-1.5-0.8-3-0.8h-43c-1.5,0-2.5,0.3-3,0.8s-0.8,1.5-0.8,3V529.9z"/>
		<path class="st0" d="M-3764.7,566v-72.2h10.8v61.4h61.3V566H-3764.7z"/>
		<path class="st0" d="M-3673.7,566c-3.6,0-6.7-1.3-9.2-3.8c-2.5-2.5-3.8-5.6-3.8-9.2v-46.1c0-3.6,1.3-6.7,3.8-9.2
			c2.5-2.5,5.6-3.8,9.2-3.8h58.9v10.8h-57.4c-1.5,0-2.5,0.3-3,0.8s-0.8,1.5-0.8,3v43.1c0,1.5,0.2,2.5,0.8,3s1.5,0.8,3,0.8h57.4V566
			H-3673.7z"/>
		<path class="st0" d="M-3604.2,566v-59.1c0-3.6,1.3-6.7,3.8-9.2c2.5-2.5,5.6-3.8,9.2-3.8h46c3.6,0,6.7,1.3,9.3,3.8
			c2.6,2.5,3.9,5.6,3.9,9.2V566h-10.9v-25.2h-50.4V566H-3604.2z M-3593.4,529.9h50.4v-21.5c0-1.5-0.2-2.5-0.7-3
			c-0.5-0.5-1.5-0.8-3-0.8h-43c-1.5,0-2.5,0.3-3,0.8s-0.8,1.5-0.8,3V529.9z"/>
		<path class="st0" d="M-3520.7,566v-72.1h12.9l48.3,57.5v-57.5h10.9V566h-12.9l-48.4-57.6V566H-3520.7z"/>
		<path class="st0" d="M-3424.3,566c-3.6,0-6.7-1.3-9.2-3.8c-2.5-2.5-3.8-5.6-3.8-9.2v-46.1c0-3.6,1.3-6.7,3.8-9.2
			c2.5-2.5,5.6-3.8,9.2-3.8h58.9v10.8h-57.4c-1.5,0-2.5,0.3-3,0.8s-0.8,1.5-0.8,3v43.1c0,1.5,0.3,2.5,0.8,3s1.5,0.8,3,0.8h57.4V566
			H-3424.3z"/>
		<path class="st0" d="M-3354.8,566v-72.1h66.1v10.8h-55.2v19.8h44.4v10.8h-44.4v19.8h55.2V566H-3354.8z"/>
	</g>
	<g>
		<path class="st0" d="M-3599.7,653.6v-50.4h7.6v50.4H-3599.7z"/>
		<path class="st0" d="M-3565,653.6v-42.8h-21.4v-7.6h50.4v7.6h-21.4v42.8H-3565z"/>
	</g>
</g>
<g>
	<g>
		<path d="M-3547.7,1008c3.9-10.7,8.3-21.1,15.3-31c4.2,5.8,6.1,12.3,8.8,18.3c36.3,83.2,72.4,166.5,108.5,249.7
			c10.3,23.6,20.5,47.3,30.6,71c1.1,2.5,4.4,6.3-2.5,6.3c-33.4-0.1-66.8-0.1-100.2-0.1c-0.4,0-0.8-0.3-1.7-0.7
			c5.4-4.7,10.7-9.2,15.8-13.9c11.2-10.2,13.8-22.8,9.8-36.9c-7.1-24.9-18-48.2-28.1-71.9c-16.4-38.5-34-76.4-51.5-114.4
			c-5.9-12.8-9.3-26.4-9.5-40.6c-0.4-9.9-2-19.9,1.3-29.6C-3550.7,1011.6-3549.5,1009.6-3547.7,1008z"/>
		<path d="M-3554.6,1032.4c-6.7,19.7-16.4,38.3-22,58.4c-4.4,15.7-5.2,31.2,0.7,46.7c0.7,2,1.9,3.9,0.9,6.1
			c-38.7-20.8-80.5-15.2-113.6,16.1c-20.4,19.3-33.4,42.7-35.6,71.4c-2.2,28.6,7.5,52.7,28.1,72.4c-2.8,2.1-4.2,0.9-5.6,0.1
			c-35-20.7-54-51.1-53.7-92.1c0.5-55.7,47-105.4,108.6-102.5c11.2,0.5,22,3.1,32.5,7.1c1.5,0.6,3.1,2,4.6,0.6c1.9-1.8,0-3.5-0.9-5
			c-14.7-24.1-12.5-48.6-1.6-73.2c6-13.6,12.4-27.1,18.3-40.8c6-14,13.5-28.3-2.9-41.6c24.1-0.9,44.8,19.5,46.2,44.2
			c0.1,2.6,0.2,5.2,0.3,7.8c0.7,1.1,0.7,2.2,0.2,3.3C-3551.5,1018.3-3551.3,1025.7-3554.6,1032.4z"/>
		<path d="M-3636.2,1322.2c-10.6,0.4-19.1-3.3-27.2-8.6c-3.6-2.3-3.4-3.9,0.1-6c18.1-10.9,27.7-27.8,33.5-47.5
			c4.7-15.8,7.9-32.1,18.5-45.7c12.7-16.2,29.4-23.1,46.4-18.2c10.6,3,10.9,3.7,6.4,13.9c-11.5,26.4-22.9,52.9-34.6,79.2
			c-4.2,9.4-10.1,17.6-18.3,24.1C-3618.8,1319.5-3627.1,1323.1-3636.2,1322.2z"/>
	</g>
	<g>
		<path d="M-3848.4,1444v-59.1c0-3.6,1.3-6.7,3.8-9.2c2.5-2.5,5.6-3.8,9.2-3.8h46c3.6,0,6.7,1.3,9.3,3.8c2.6,2.5,3.9,5.6,3.9,9.2
			v59.1h-10.9v-25.2h-50.4v25.2H-3848.4z M-3837.5,1407.9h50.4v-21.5c0-1.5-0.2-2.5-0.7-3c-0.5-0.5-1.5-0.8-3-0.8h-43
			c-1.5,0-2.5,0.3-3,0.8s-0.8,1.5-0.8,3V1407.9z"/>
		<path d="M-3764.7,1444v-72.2h10.8v61.4h61.3v10.8H-3764.7z"/>
		<path d="M-3673.7,1444c-3.6,0-6.7-1.3-9.2-3.8c-2.5-2.5-3.8-5.6-3.8-9.2v-46.1c0-3.6,1.3-6.7,3.8-9.2c2.5-2.5,5.6-3.8,9.2-3.8
			h58.9v10.8h-57.4c-1.5,0-2.5,0.3-3,0.8s-0.8,1.5-0.8,3v43.1c0,1.5,0.2,2.5,0.8,3s1.5,0.8,3,0.8h57.4v10.8H-3673.7z"/>
		<path d="M-3604.2,1444v-59.1c0-3.6,1.3-6.7,3.8-9.2c2.5-2.5,5.6-3.8,9.2-3.8h46c3.6,0,6.7,1.3,9.3,3.8c2.6,2.5,3.9,5.6,3.9,9.2
			v59.1h-10.9v-25.2h-50.4v25.2H-3604.2z M-3593.4,1407.9h50.4v-21.5c0-1.5-0.2-2.5-0.7-3c-0.5-0.5-1.5-0.8-3-0.8h-43
			c-1.5,0-2.5,0.3-3,0.8s-0.8,1.5-0.8,3V1407.9z"/>
		<path d="M-3520.7,1444v-72.1h12.9l48.3,57.5v-57.5h10.9v72.1h-12.9l-48.4-57.6v57.6H-3520.7z"/>
		<path d="M-3424.3,1444c-3.6,0-6.7-1.3-9.2-3.8c-2.5-2.5-3.8-5.6-3.8-9.2v-46.1c0-3.6,1.3-6.7,3.8-9.2c2.5-2.5,5.6-3.8,9.2-3.8
			h58.9v10.8h-57.4c-1.5,0-2.5,0.3-3,0.8s-0.8,1.5-0.8,3v43.1c0,1.5,0.3,2.5,0.8,3s1.5,0.8,3,0.8h57.4v10.8H-3424.3z"/>
		<path d="M-3354.8,1444v-72.1h66.1v10.8h-55.2v19.8h44.4v10.8h-44.4v19.8h55.2v10.8H-3354.8z"/>
	</g>
	<g>
		<path d="M-3599.7,1531.6v-50.4h7.6v50.4H-3599.7z"/>
		<path d="M-3565,1531.6v-42.8h-21.4v-7.6h50.4v7.6h-21.4v42.8H-3565z"/>
	</g>
</g>
<g>
	<g>
		<path d="M-3547.7,1884c3.9-10.7,8.3-21.1,15.3-31c4.2,5.8,6.1,12.3,8.8,18.3c36.3,83.2,72.4,166.5,108.5,249.7
			c10.3,23.6,20.5,47.3,30.6,71c1.1,2.5,4.4,6.3-2.5,6.3c-33.4-0.1-66.8-0.1-100.2-0.1c-0.4,0-0.8-0.3-1.7-0.7
			c5.4-4.7,10.7-9.2,15.8-13.9c11.2-10.2,13.8-22.8,9.8-36.9c-7.1-24.9-18-48.2-28.1-71.9c-16.4-38.5-34-76.4-51.5-114.4
			c-5.9-12.8-9.3-26.4-9.5-40.6c-0.4-9.9-2-19.9,1.3-29.6C-3550.7,1887.6-3549.5,1885.6-3547.7,1884z"/>
		<path d="M-3554.6,1908.4c-6.7,19.7-16.4,38.3-22,58.4c-4.4,15.7-5.2,31.2,0.7,46.7c0.7,2,1.9,3.9,0.9,6.1
			c-38.7-20.8-80.5-15.2-113.6,16.1c-20.4,19.3-33.4,42.7-35.6,71.4c-2.2,28.6,7.5,52.7,28.1,72.4c-2.8,2.1-4.2,0.9-5.6,0.1
			c-35-20.7-54-51.1-53.7-92.1c0.5-55.7,47-105.4,108.6-102.5c11.2,0.5,22,3.1,32.5,7.1c1.5,0.6,3.1,2,4.6,0.6c1.9-1.8,0-3.5-0.9-5
			c-14.7-24.1-12.5-48.6-1.6-73.2c6-13.6,12.4-27.1,18.3-40.8c6-14,13.5-28.3-2.9-41.6c24.1-0.9,44.8,19.5,46.2,44.2
			c0.1,2.6,0.2,5.2,0.3,7.8c0.7,1.1,0.7,2.2,0.2,3.3C-3551.5,1894.3-3551.3,1901.7-3554.6,1908.4z"/>
		<path d="M-3636.2,2198.2c-10.6,0.4-19.1-3.3-27.2-8.6c-3.6-2.3-3.4-3.9,0.1-6c18.1-10.9,27.7-27.8,33.5-47.5
			c4.7-15.8,7.9-32.1,18.5-45.7c12.7-16.2,29.4-23.1,46.4-18.2c10.6,3,10.9,3.7,6.4,13.9c-11.5,26.4-22.9,52.9-34.6,79.2
			c-4.2,9.4-10.1,17.6-18.3,24.1C-3618.8,2195.5-3627.1,2199.1-3636.2,2198.2z"/>
	</g>
	<g>
		<g>
			<path d="M-3848.4,2320v-59.1c0-3.6,1.3-6.7,3.8-9.2c2.5-2.5,5.6-3.8,9.2-3.8h46c3.6,0,6.7,1.3,9.3,3.8c2.6,2.5,3.9,5.6,3.9,9.2
				v59.1h-10.9v-25.2h-50.4v25.2H-3848.4z M-3837.5,2283.9h50.4v-21.5c0-1.5-0.2-2.5-0.7-3c-0.5-0.5-1.5-0.8-3-0.8h-43
				c-1.5,0-2.5,0.3-3,0.8s-0.8,1.5-0.8,3V2283.9z"/>
			<path d="M-3764.7,2320v-72.2h10.8v61.4h61.3v10.8H-3764.7z"/>
			<path d="M-3673.7,2320c-3.6,0-6.7-1.3-9.2-3.8c-2.5-2.5-3.8-5.6-3.8-9.2v-46.1c0-3.6,1.3-6.7,3.8-9.2c2.5-2.5,5.6-3.8,9.2-3.8
				h58.9v10.8h-57.4c-1.5,0-2.5,0.3-3,0.8s-0.8,1.5-0.8,3v43.1c0,1.5,0.2,2.5,0.8,3s1.5,0.8,3,0.8h57.4v10.8H-3673.7z"/>
			<path d="M-3604.2,2320v-59.1c0-3.6,1.3-6.7,3.8-9.2c2.5-2.5,5.6-3.8,9.2-3.8h46c3.6,0,6.7,1.3,9.3,3.8c2.6,2.5,3.9,5.6,3.9,9.2
				v59.1h-10.9v-25.2h-50.4v25.2H-3604.2z M-3593.4,2283.9h50.4v-21.5c0-1.5-0.2-2.5-0.7-3c-0.5-0.5-1.5-0.8-3-0.8h-43
				c-1.5,0-2.5,0.3-3,0.8s-0.8,1.5-0.8,3V2283.9z"/>
			<path d="M-3520.7,2320v-72.1h12.9l48.3,57.5v-57.5h10.9v72.1h-12.9l-48.4-57.6v57.6H-3520.7z"/>
			<path d="M-3424.3,2320c-3.6,0-6.7-1.3-9.2-3.8c-2.5-2.5-3.8-5.6-3.8-9.2v-46.1c0-3.6,1.3-6.7,3.8-9.2c2.5-2.5,5.6-3.8,9.2-3.8
				h58.9v10.8h-57.4c-1.5,0-2.5,0.3-3,0.8s-0.8,1.5-0.8,3v43.1c0,1.5,0.3,2.5,0.8,3s1.5,0.8,3,0.8h57.4v10.8H-3424.3z"/>
			<path d="M-3354.8,2320v-72.1h66.1v10.8h-55.2v19.8h44.4v10.8h-44.4v19.8h55.2v10.8H-3354.8z"/>
		</g>
	</g>
	<g>
		<g>
			<path d="M-3599.4,2407.6v-50.4h7.6v50.4H-3599.4z"/>
			<path d="M-3565.3,2407.6v-42.8h-21.4v-7.6h50.4v7.6h-21.4v42.8H-3565.3z"/>
		</g>
	</g>
</g>
<g>
	<path class="st0" d="M-2266.4,489.7c5.3-14.5,11.3-28.7,20.9-42.3c5.7,7.9,8.4,16.7,12,25c49.4,113.5,98.7,227,148,340.6
		c14,32.2,27.9,64.5,41.7,96.8c1.5,3.5,6,8.6-3.4,8.6c-45.5-0.2-91.1-0.1-136.6-0.2c-0.6,0-1.1-0.4-2.3-1
		c7.4-6.4,14.6-12.5,21.6-18.9c15.2-13.9,18.8-31.1,13.3-50.3c-9.6-33.9-24.5-65.8-38.3-98.1c-22.4-52.5-46.4-104.3-70.3-156.1
		c-8-17.5-12.6-36-12.9-55.4c-0.5-13.5-2.8-27.1,1.8-40.4C-2270.6,494.6-2268.9,491.9-2266.4,489.7z"/>
	<path class="st0" d="M-2275.9,523c-9.1,26.9-22.3,52.2-30,79.6c-6,21.4-7,42.5,0.9,63.7c1,2.7,2.6,5.3,1.2,8.4
		c-52.8-28.4-109.8-20.8-155,22c-27.8,26.3-45.5,58.3-48.5,97.4c-3,39,10.2,71.8,38.4,98.7c-3.8,2.8-5.7,1.3-7.6,0.1
		c-47.8-28.2-73.7-69.7-73.2-125.6c0.7-76,64.1-143.8,148.1-139.8c15.2,0.7,30,4.3,44.3,9.7c2,0.8,4.3,2.7,6.3,0.8
		c2.6-2.5,0.1-4.8-1.2-6.8c-20-32.9-17.1-66.3-2.1-99.9c8.2-18.6,16.9-37,24.9-55.6c8.2-19.1,18.4-38.6-4-56.7
		c32.9-1.3,61.1,26.6,63,60.2c0.2,3.5,0.3,7.1,0.5,10.6c0.9,1.4,0.9,2.9,0.3,4.5C-2271.6,503.8-2271.4,513.9-2275.9,523z"/>
	<path class="st0" d="M-2387.1,918.3c-14.5,0.6-26.1-4.6-37.1-11.7c-4.8-3.1-4.6-5.3,0.1-8.1c24.7-14.8,37.7-37.9,45.7-64.7
		c6.4-21.5,10.8-43.8,25.2-62.3c17.3-22.1,40.1-31.5,63.3-24.9c14.4,4.1,14.8,5.1,8.8,18.9c-15.7,36-31.3,72.1-47.2,108.1
		c-5.7,12.8-13.8,24-24.9,32.8C-2363.4,914.5-2374.7,919.5-2387.1,918.3z"/>
</g>
<g>
	<path d="M-2266.4-58.3c5.3-14.5,11.3-28.7,20.9-42.3c5.7,7.9,8.4,16.7,12,25c49.4,113.5,98.7,227,148,340.6
		c14,32.2,27.9,64.5,41.7,96.8c1.5,3.5,6,8.6-3.4,8.6c-45.5-0.2-91.1-0.1-136.6-0.2c-0.6,0-1.1-0.4-2.3-1
		c7.4-6.4,14.6-12.5,21.6-18.9c15.2-13.9,18.8-31.1,13.3-50.3c-9.6-33.9-24.5-65.8-38.3-98.1c-22.4-52.5-46.4-104.3-70.3-156.1
		c-8-17.5-12.6-36-12.9-55.4c-0.5-13.5-2.8-27.1,1.8-40.4C-2270.6-53.4-2268.9-56.1-2266.4-58.3z"/>
	<path d="M-2275.9-25c-9.1,26.9-22.3,52.2-30,79.6c-6,21.4-7,42.5,0.9,63.7c1,2.7,2.6,5.3,1.2,8.4c-52.8-28.4-109.8-20.8-155,22
		c-27.8,26.3-45.5,58.3-48.5,97.4c-3,39,10.2,71.8,38.4,98.7c-3.8,2.8-5.7,1.3-7.6,0.1c-47.8-28.2-73.7-69.7-73.2-125.6
		c0.7-76,64.1-143.8,148.1-139.8c15.2,0.7,30,4.3,44.3,9.7c2,0.8,4.3,2.7,6.3,0.8c2.6-2.5,0.1-4.8-1.2-6.8
		c-20-32.9-17.1-66.3-2.1-99.9c8.2-18.6,16.9-37,24.9-55.6c8.2-19.1,18.4-38.6-4-56.7c32.9-1.3,61.1,26.6,63,60.2
		c0.2,3.5,0.3,7.1,0.5,10.6c0.9,1.4,0.9,2.9,0.3,4.5C-2271.6-44.2-2271.4-34.1-2275.9-25z"/>
	<path d="M-2387.1,370.3c-14.5,0.6-26.1-4.6-37.1-11.7c-4.8-3.1-4.6-5.3,0.1-8.1c24.7-14.8,37.7-37.9,45.7-64.7
		c6.4-21.5,10.8-43.8,25.2-62.3c17.3-22.1,40.1-31.5,63.3-24.9c14.4,4.1,14.8,5.1,8.8,18.9c-15.7,36-31.3,72.1-47.2,108.1
		c-5.7,12.8-13.8,24-24.9,32.8C-2363.4,366.5-2374.7,371.5-2387.1,370.3z"/>
</g>
<g>
	<path class="st0" d="M-1302.7,882.7c10.6-29.1,22.6-57.5,41.9-84.6c11.5,15.8,16.7,33.5,23.9,50c99,227.2,197.7,454.6,296.4,681.9
		c28,64.5,55.9,129.1,83.5,193.8c3,6.9,12.1,17.2-6.8,17.1c-91.2-0.4-182.4-0.2-273.6-0.4c-1.1,0-2.2-0.9-4.7-2
		c14.7-12.9,29.2-25.1,43.1-37.8c30.5-27.8,37.6-62.3,26.7-100.8c-19.3-67.9-49.1-131.8-76.7-196.4
		c-44.9-105.1-93-208.7-140.7-312.5c-16.1-35-25.3-72.1-25.9-111c-1-27-5.5-54.2,3.6-80.9C-1311.1,892.5-1307.7,887.1-1302.7,882.7z
		"/>
	<path class="st0" d="M-1321.7,949.4c-18.2,53.8-44.7,104.5-60,159.5c-11.9,42.8-14.1,85.2,1.8,127.4c2,5.3,5.1,10.6,2.5,16.7
		c-105.8-56.9-219.8-41.6-310.3,44.1c-55.7,52.7-91.1,116.6-97.1,194.9c-6,78.1,20.5,143.8,76.8,197.6c-7.7,5.6-11.3,2.5-15.2,0.2
		c-95.7-56.6-147.6-139.5-146.6-251.4c1.3-152.2,128.4-288,296.5-280c30.5,1.4,60,8.6,88.6,19.4c4.1,1.5,8.6,5.4,12.6,1.6
		c5.3-4.9,0.1-9.6-2.3-13.6c-40-65.9-34.1-132.7-4.3-200c16.5-37.2,33.9-74,49.9-111.4c16.4-38.2,36.9-77.2-7.9-113.6
		c65.9-2.6,122.3,53.2,126.2,120.6c0.4,7.1,0.6,14.2,0.9,21.3c1.8,2.9,1.9,5.9,0.6,9C-1313.1,911-1312.7,931.2-1321.7,949.4z"/>
	<path class="st0" d="M-1544.5,1740.9c-28.9,1.2-52.2-9.1-74.3-23.4c-9.7-6.3-9.2-10.6,0.2-16.3c49.5-29.7,75.5-75.9,91.5-129.6
		c12.8-43.1,21.6-87.7,50.5-124.7c34.6-44.2,80.3-63,126.8-49.8c28.9,8.2,29.7,10.1,17.5,37.9c-31.5,72.1-62.7,144.4-94.4,216.4
		c-11.3,25.7-27.6,48.1-49.9,65.7C-1497,1733.3-1519.6,1743.3-1544.5,1740.9z"/>
</g>
<g>
	<path d="M-1302.7-249.3c10.6-29.1,22.6-57.5,41.9-84.6c11.5,15.8,16.7,33.5,23.9,50c99,227.2,197.7,454.6,296.4,681.9
		c28,64.5,55.9,129.1,83.5,193.8c3,6.9,12.1,17.2-6.8,17.1c-91.2-0.4-182.4-0.2-273.6-0.4c-1.1,0-2.2-0.9-4.7-2
		c14.7-12.9,29.2-25.1,43.1-37.8c30.5-27.8,37.6-62.3,26.7-100.8c-19.3-67.9-49.1-131.8-76.7-196.4
		c-44.9-105.1-93-208.7-140.7-312.5c-16.1-35-25.3-72.1-25.9-111c-1-27-5.5-54.2,3.6-80.9C-1311.1-239.5-1307.7-244.9-1302.7-249.3z
		"/>
	<path d="M-1321.7-182.6c-18.2,53.8-44.7,104.5-60,159.5c-11.9,42.8-14.1,85.2,1.8,127.4c2,5.3,5.1,10.6,2.5,16.7
		c-105.8-56.9-219.8-41.6-310.3,44.1c-55.7,52.7-91.1,116.6-97.1,194.9c-6,78.1,20.5,143.8,76.8,197.6c-7.7,5.6-11.3,2.5-15.2,0.2
		c-95.7-56.6-147.6-139.5-146.6-251.4c1.3-152.2,128.4-288,296.5-280c30.5,1.4,60,8.6,88.6,19.4c4.1,1.5,8.6,5.4,12.6,1.6
		c5.3-4.9,0.1-9.6-2.3-13.6c-40-65.9-34.1-132.7-4.3-200c16.5-37.2,33.9-74,49.9-111.4c16.4-38.2,36.9-77.2-7.9-113.6
		c65.9-2.6,122.3,53.2,126.2,120.6c0.4,7.1,0.6,14.2,0.9,21.3c1.8,2.9,1.9,5.9,0.6,9C-1313.1-221-1312.7-200.8-1321.7-182.6z"/>
	<path d="M-1544.5,608.9c-28.9,1.2-52.2-9.1-74.3-23.4c-9.7-6.3-9.2-10.6,0.2-16.3c49.5-29.7,75.5-75.9,91.5-129.6
		c12.8-43.1,21.6-87.7,50.5-124.7c34.6-44.2,80.3-63,126.8-49.8c28.9,8.2,29.7,10.1,17.5,37.9c-31.5,72.1-62.7,144.4-94.4,216.4
		c-11.3,25.7-27.6,48.1-49.9,65.7C-1497,601.3-1519.6,611.3-1544.5,608.9z"/>
</g>
<g>
	<path class="st0" d="M106.9,28.7c2-5.5,4.2-10.8,7.9-15.9c2.2,3,3.1,6.3,4.5,9.4c18.6,42.6,37.1,85.3,55.6,128
		c5.3,12.1,10.5,24.2,15.7,36.4c0.6,1.3,2.3,3.2-1.3,3.2c-17.1-0.1-34.2,0-51.3-0.1c-0.2,0-0.4-0.2-0.9-0.4c2.8-2.4,5.5-4.7,8.1-7.1
		c5.7-5.2,7.1-11.7,5-18.9c-3.6-12.7-9.2-24.7-14.4-36.9c-8.4-19.7-17.4-39.2-26.4-58.7c-3-6.6-4.8-13.5-4.9-20.8
		c-0.2-5.1-1-10.2,0.7-15.2C105.4,30.6,106,29.6,106.9,28.7z"/>
	<path class="st0" d="M103.4,41.3C100,51.4,95,60.9,92.1,71.2c-2.2,8-2.6,16,0.3,23.9c0.4,1,1,2,0.5,3.1
		c-19.9-10.7-41.2-7.8-58.2,8.3c-10.5,9.9-17.1,21.9-18.2,36.6c-1.1,14.7,3.8,27,14.4,37.1c-1.4,1.1-2.1,0.5-2.9,0
		c-18-10.6-27.7-26.2-27.5-47.2c0.3-28.6,24.1-54,55.6-52.5c5.7,0.3,11.3,1.6,16.6,3.6c0.8,0.3,1.6,1,2.4,0.3c1-0.9,0-1.8-0.4-2.6
		c-7.5-12.4-6.4-24.9-0.8-37.5c3.1-7,6.4-13.9,9.4-20.9c3.1-7.2,6.9-14.5-1.5-21.3c12.4-0.5,23,10,23.7,22.6c0.1,1.3,0.1,2.7,0.2,4
		c0.3,0.5,0.3,1.1,0.1,1.7C105,34.1,105.1,37.9,103.4,41.3z"/>
	<path class="st0" d="M61.6,189.8c-5.4,0.2-9.8-1.7-14-4.4c-1.8-1.2-1.7-2,0-3.1c9.3-5.6,14.2-14.2,17.2-24.3
		c2.4-8.1,4-16.5,9.5-23.4c6.5-8.3,15.1-11.8,23.8-9.3c5.4,1.5,5.6,1.9,3.3,7.1c-5.9,13.5-11.8,27.1-17.7,40.6
		c-2.1,4.8-5.2,9-9.4,12.3C70.5,188.4,66.2,190.3,61.6,189.8z"/>
</g>
<g>
	<path class="st0" d="M106.2,533.2c1.9-5.1,4-10.1,7.3-14.8c2,2.8,2.9,5.9,4.2,8.8c17.4,39.8,34.7,79.7,52,119.5
		c4.9,11.3,9.8,22.6,14.6,34c0.5,1.2,2.1,3-1.2,3c-16-0.1-32,0-48-0.1c-0.2,0-0.4-0.2-0.8-0.3c2.6-2.3,5.1-4.4,7.6-6.6
		c5.3-4.9,6.6-10.9,4.7-17.7c-3.4-11.9-8.6-23.1-13.5-34.4c-7.9-18.4-16.3-36.6-24.7-54.8c-2.8-6.1-4.4-12.6-4.5-19.5
		c-0.2-4.7-1-9.5,0.6-14.2C104.8,534.9,105.3,534,106.2,533.2z"/>
	<path class="st0" d="M102.9,544.9c-3.2,9.4-7.8,18.3-10.5,28c-2.1,7.5-2.5,14.9,0.3,22.3c0.4,0.9,0.9,1.9,0.4,2.9
		c-18.5-10-38.5-7.3-54.4,7.7c-9.8,9.2-16,20.4-17,34.2c-1.1,13.7,3.6,25.2,13.5,34.6c-1.3,1-2,0.4-2.7,0
		c-16.8-9.9-25.9-24.5-25.7-44.1c0.2-26.7,22.5-50.5,52-49.1c5.3,0.3,10.5,1.5,15.5,3.4c0.7,0.3,1.5,0.9,2.2,0.3
		c0.9-0.9,0-1.7-0.4-2.4c-7-11.5-6-23.3-0.7-35.1c2.9-6.5,5.9-13,8.8-19.5c2.9-6.7,6.5-13.5-1.4-19.9c11.6-0.5,21.4,9.3,22.1,21.1
		c0.1,1.2,0.1,2.5,0.2,3.7c0.3,0.5,0.3,1,0.1,1.6C104.4,538.1,104.5,541.7,102.9,544.9z"/>
	<path class="st0" d="M63.8,683.6c-5.1,0.2-9.1-1.6-13-4.1c-1.7-1.1-1.6-1.9,0-2.9c8.7-5.2,13.2-13.3,16-22.7
		c2.2-7.6,3.8-15.4,8.8-21.9c6.1-7.8,14.1-11.1,22.2-8.7c5.1,1.4,5.2,1.8,3.1,6.6c-5.5,12.6-11,25.3-16.6,37.9
		c-2,4.5-4.8,8.4-8.7,11.5C72.2,682.3,68.2,684.1,63.8,683.6z"/>
</g>
<g>
	<path d="M106.2,322.2c1.9-5.1,4-10.1,7.3-14.8c2,2.8,2.9,5.9,4.2,8.8c17.4,39.8,34.7,79.7,52,119.5c4.9,11.3,9.8,22.6,14.6,34
		c0.5,1.2,2.1,3-1.2,3c-16-0.1-32,0-48-0.1c-0.2,0-0.4-0.2-0.8-0.3c2.6-2.3,5.1-4.4,7.6-6.6c5.3-4.9,6.6-10.9,4.7-17.7
		c-3.4-11.9-8.6-23.1-13.5-34.4c-7.9-18.4-16.3-36.6-24.7-54.8c-2.8-6.1-4.4-12.6-4.5-19.5c-0.2-4.7-1-9.5,0.6-14.2
		C104.8,323.9,105.3,323,106.2,322.2z"/>
	<path d="M102.9,333.9c-3.2,9.4-7.8,18.3-10.5,28c-2.1,7.5-2.5,14.9,0.3,22.3c0.4,0.9,0.9,1.9,0.4,2.9c-18.5-10-38.5-7.3-54.4,7.7
		c-9.8,9.2-16,20.4-17,34.2c-1.1,13.7,3.6,25.2,13.5,34.6c-1.3,1-2,0.4-2.7,0c-16.8-9.9-25.9-24.5-25.7-44.1
		c0.2-26.7,22.5-50.5,52-49.1c5.3,0.3,10.5,1.5,15.5,3.4c0.7,0.3,1.5,0.9,2.2,0.3c0.9-0.9,0-1.7-0.4-2.4c-7-11.5-6-23.3-0.7-35.1
		c2.9-6.5,5.9-13,8.8-19.5c2.9-6.7,6.5-13.5-1.4-19.9c11.6-0.5,21.4,9.3,22.1,21.1c0.1,1.2,0.1,2.5,0.2,3.7c0.3,0.5,0.3,1,0.1,1.6
		C104.4,327.1,104.5,330.7,102.9,333.9z"/>
	<path d="M63.8,472.6c-5.1,0.2-9.1-1.6-13-4.1c-1.7-1.1-1.6-1.9,0-2.9c8.7-5.2,13.2-13.3,16-22.7c2.2-7.6,3.8-15.4,8.8-21.9
		c6.1-7.8,14.1-11.1,22.2-8.7c5.1,1.4,5.2,1.8,3.1,6.6c-5.5,12.6-11,25.3-16.6,37.9c-2,4.5-4.8,8.4-8.7,11.5
		C72.2,471.3,68.2,473.1,63.8,472.6z"/>
</g>
<g>
	<path d="M106.9-219.3c2-5.5,4.2-10.8,7.9-15.9c2.2,3,3.1,6.3,4.5,9.4c18.6,42.6,37.1,85.3,55.6,128c5.3,12.1,10.5,24.2,15.7,36.4
		c0.6,1.3,2.3,3.2-1.3,3.2c-17.1-0.1-34.2,0-51.3-0.1c-0.2,0-0.4-0.2-0.9-0.4c2.8-2.4,5.5-4.7,8.1-7.1c5.7-5.2,7.1-11.7,5-18.9
		c-3.6-12.7-9.2-24.7-14.4-36.9c-8.4-19.7-17.4-39.2-26.4-58.7c-3-6.6-4.8-13.5-4.9-20.8c-0.2-5.1-1-10.2,0.7-15.2
		C105.4-217.4,106-218.4,106.9-219.3z"/>
	<path d="M103.4-206.7c-3.4,10.1-8.4,19.6-11.3,29.9c-2.2,8-2.6,16,0.3,23.9c0.4,1,1,2,0.5,3.1c-19.9-10.7-41.2-7.8-58.2,8.3
		c-10.5,9.9-17.1,21.9-18.2,36.6c-1.1,14.7,3.8,27,14.4,37.1c-1.4,1.1-2.1,0.5-2.9,0c-18-10.6-27.7-26.2-27.5-47.2
		c0.3-28.6,24.1-54,55.6-52.5c5.7,0.3,11.3,1.6,16.6,3.6c0.8,0.3,1.6,1,2.4,0.3c1-0.9,0-1.8-0.4-2.6c-7.5-12.4-6.4-24.9-0.8-37.5
		c3.1-7,6.4-13.9,9.4-20.9c3.1-7.2,6.9-14.5-1.5-21.3c12.4-0.5,23,10,23.7,22.6c0.1,1.3,0.1,2.7,0.2,4c0.3,0.5,0.3,1.1,0.1,1.7
		C105-213.9,105.1-210.1,103.4-206.7z"/>
	<path d="M61.6-58.2c-5.4,0.2-9.8-1.7-14-4.4c-1.8-1.2-1.7-2,0-3.1C57-71.2,61.8-79.9,64.8-90c2.4-8.1,4-16.5,9.5-23.4
		c6.5-8.3,15.1-11.8,23.8-9.3c5.4,1.5,5.6,1.9,3.3,7.1C95.5-102.1,89.6-88.5,83.7-75c-2.1,4.8-5.2,9-9.4,12.3
		C70.5-59.6,66.2-57.7,61.6-58.2z"/>
</g>
<g>
	<g>
		<path class="st0" d="M-3630.1-850.4c4-10.9,8.5-21.6,15.7-31.8c4.3,5.9,6.3,12.6,9,18.8c37.2,85.4,74.3,170.9,111.4,256.4
			c10.5,24.3,21,48.6,31.4,72.9c1.1,2.6,4.5,6.5-2.5,6.4c-34.3-0.1-68.6-0.1-102.9-0.1c-0.4,0-0.8-0.3-1.8-0.7
			c5.5-4.8,11-9.4,16.2-14.2c11.5-10.4,14.2-23.4,10-37.9c-7.2-25.5-18.5-49.5-28.9-73.9c-16.9-39.5-34.9-78.5-52.9-117.5
			c-6.1-13.2-9.5-27.1-9.7-41.7c-0.4-10.2-2.1-20.4,1.3-30.4C-3633.2-846.7-3632-848.7-3630.1-850.4z"/>
		<path class="st0" d="M-3637.2-825.3c-6.8,20.2-16.8,39.3-22.5,60c-4.5,16.1-5.3,32,0.7,47.9c0.8,2,1.9,4,0.9,6.3
			c-39.8-21.4-82.6-15.6-116.7,16.6c-21,19.8-34.3,43.9-36.5,73.3c-2.3,29.4,7.7,54.1,28.9,74.3c-2.9,2.1-4.3,0.9-5.7,0.1
			c-36-21.3-55.5-52.5-55.1-94.5c0.5-57.2,48.3-108.3,111.5-105.3c11.5,0.5,22.6,3.2,33.3,7.3c1.5,0.6,3.2,2,4.7,0.6
			c2-1.9,0-3.6-0.9-5.1c-15.1-24.8-12.8-49.9-1.6-75.2c6.2-14,12.7-27.8,18.8-41.9c6.2-14.4,13.9-29-3-42.7c24.8-1,46,20,47.4,45.3
			c0.2,2.7,0.2,5.3,0.3,8c0.7,1.1,0.7,2.2,0.2,3.4C-3634-839.7-3633.9-832.1-3637.2-825.3z"/>
		<path class="st0" d="M-3721-527.7c-10.9,0.4-19.6-3.4-27.9-8.8c-3.6-2.4-3.5-4,0.1-6.1c18.6-11.2,28.4-28.5,34.4-48.7
			c4.8-16.2,8.1-33,19-46.9c13-16.6,30.2-23.7,47.7-18.7c10.9,3.1,11.2,3.8,6.6,14.3c-11.8,27.1-23.6,54.3-35.5,81.4
			c-4.3,9.7-10.4,18.1-18.8,24.7C-3703.1-530.6-3711.6-526.8-3721-527.7z"/>
	</g>
	<g>
		<path class="st0" d="M-3938.8-402.8v-60.7c0-3.7,1.3-6.9,3.9-9.5c2.6-2.6,5.8-3.9,9.5-3.9h47.2c3.7,0,6.9,1.3,9.5,3.9
			c2.6,2.6,4,5.8,4,9.5v60.7h-11.2v-25.9h-51.7v25.9H-3938.8z M-3927.7-439.8h51.7v-22.1c0-1.5-0.2-2.5-0.7-3
			c-0.5-0.5-1.5-0.8-3.1-0.8h-44.1c-1.5,0-2.5,0.3-3,0.8s-0.8,1.5-0.8,3V-439.8z"/>
		<path class="st0" d="M-3852.9-402.8v-74.2h11.1v63.1h62.9v11.1H-3852.9z"/>
		<path class="st0" d="M-3759.6-402.8c-3.7,0-6.9-1.3-9.5-3.9c-2.6-2.6-3.9-5.8-3.9-9.5v-47.3c0-3.7,1.3-6.9,3.9-9.5
			c2.6-2.6,5.8-3.9,9.5-3.9h60.5v11.1h-58.9c-1.5,0-2.5,0.3-3,0.8c-0.5,0.5-0.8,1.5-0.8,3v44.2c0,1.5,0.3,2.5,0.8,3
			c0.5,0.5,1.5,0.8,3,0.8h58.9v11.1H-3759.6z"/>
		<path class="st0" d="M-3688.2-402.8v-60.7c0-3.7,1.3-6.9,3.9-9.5c2.6-2.6,5.8-3.9,9.5-3.9h47.2c3.7,0,6.9,1.3,9.5,3.9
			c2.6,2.6,4,5.8,4,9.5v60.7h-11.2v-25.9h-51.7v25.9H-3688.2z M-3677.1-439.8h51.7v-22.1c0-1.5-0.2-2.5-0.7-3
			c-0.5-0.5-1.5-0.8-3.1-0.8h-44.1c-1.5,0-2.5,0.3-3,0.8s-0.8,1.5-0.8,3V-439.8z"/>
		<path class="st0" d="M-3602.4-402.8v-74.1h13.3l49.6,59v-59h11.2v74.1h-13.3l-49.7-59.1v59.1H-3602.4z"/>
		<path class="st0" d="M-3503.4-402.8c-3.7,0-6.9-1.3-9.5-3.9c-2.6-2.6-3.9-5.8-3.9-9.5v-47.3c0-3.7,1.3-6.9,3.9-9.5
			c2.6-2.6,5.8-3.9,9.5-3.9h60.5v11.1h-58.9c-1.5,0-2.5,0.3-3,0.8c-0.5,0.5-0.8,1.5-0.8,3v44.2c0,1.5,0.3,2.5,0.8,3
			c0.5,0.5,1.5,0.8,3,0.8h58.9v11.1H-3503.4z"/>
		<path class="st0" d="M-3432.1-402.8v-74.1h67.9v11.1h-56.7v20.4h45.6v11.1h-45.6v20.4h56.7v11.1H-3432.1z"/>
	</g>
	<g>
		<path class="st0" d="M-3683.5-312.7v-51.7h7.8v51.7H-3683.5z"/>
		<path class="st0" d="M-3647.9-312.7v-44h-22v-7.8h51.7v7.8h-22v44H-3647.9z"/>
	</g>
</g>
<g>
	<g>
		<path d="M-3630.1-1487.7c4-10.9,8.5-21.6,15.7-31.8c4.3,5.9,6.3,12.6,9,18.8c37.2,85.4,74.3,170.9,111.4,256.4
			c10.5,24.3,21,48.6,31.4,72.9c1.1,2.6,4.5,6.5-2.5,6.4c-34.3-0.1-68.6-0.1-102.9-0.1c-0.4,0-0.8-0.3-1.8-0.7
			c5.5-4.8,11-9.4,16.2-14.2c11.5-10.4,14.2-23.4,10-37.9c-7.2-25.5-18.5-49.5-28.9-73.9c-16.9-39.5-34.9-78.5-52.9-117.5
			c-6.1-13.2-9.5-27.1-9.7-41.7c-0.4-10.2-2.1-20.4,1.3-30.4C-3633.2-1483.9-3632-1486-3630.1-1487.7z"/>
		<path d="M-3637.2-1462.6c-6.8,20.2-16.8,39.3-22.5,60c-4.5,16.1-5.3,32,0.7,47.9c0.8,2,1.9,4,0.9,6.3
			c-39.8-21.4-82.6-15.6-116.7,16.6c-21,19.8-34.3,43.9-36.5,73.3c-2.3,29.4,7.7,54.1,28.9,74.3c-2.9,2.1-4.3,0.9-5.7,0.1
			c-36-21.3-55.5-52.5-55.1-94.5c0.5-57.2,48.3-108.3,111.5-105.3c11.5,0.5,22.6,3.2,33.3,7.3c1.5,0.6,3.2,2,4.7,0.6
			c2-1.9,0-3.6-0.9-5.1c-15.1-24.8-12.8-49.9-1.6-75.2c6.2-14,12.7-27.8,18.8-41.9c6.2-14.4,13.9-29-3-42.7c24.8-1,46,20,47.4,45.3
			c0.2,2.7,0.2,5.3,0.3,8c0.7,1.1,0.7,2.2,0.2,3.4C-3634-1477-3633.9-1469.4-3637.2-1462.6z"/>
		<path d="M-3721-1165c-10.9,0.4-19.6-3.4-27.9-8.8c-3.6-2.4-3.5-4,0.1-6.1c18.6-11.2,28.4-28.5,34.4-48.7c4.8-16.2,8.1-33,19-46.9
			c13-16.6,30.2-23.7,47.7-18.7c10.9,3.1,11.2,3.8,6.6,14.3c-11.8,27.1-23.6,54.3-35.5,81.4c-4.3,9.7-10.4,18.1-18.8,24.7
			C-3703.1-1167.8-3711.6-1164.1-3721-1165z"/>
	</g>
	<g>
		<path d="M-3938.8-1040v-60.7c0-3.7,1.3-6.9,3.9-9.5c2.6-2.6,5.8-3.9,9.5-3.9h47.2c3.7,0,6.9,1.3,9.5,3.9c2.6,2.6,4,5.8,4,9.5v60.7
			h-11.2v-25.9h-51.7v25.9H-3938.8z M-3927.7-1077.1h51.7v-22.1c0-1.5-0.2-2.5-0.7-3c-0.5-0.5-1.5-0.8-3.1-0.8h-44.1
			c-1.5,0-2.5,0.3-3,0.8c-0.5,0.5-0.8,1.5-0.8,3V-1077.1z"/>
		<path d="M-3852.9-1040v-74.2h11.1v63.1h62.9v11.1H-3852.9z"/>
		<path d="M-3759.6-1040c-3.7,0-6.9-1.3-9.5-3.9c-2.6-2.6-3.9-5.8-3.9-9.5v-47.3c0-3.7,1.3-6.9,3.9-9.5c2.6-2.6,5.8-3.9,9.5-3.9
			h60.5v11.1h-58.9c-1.5,0-2.5,0.3-3,0.8c-0.5,0.5-0.8,1.5-0.8,3v44.2c0,1.5,0.3,2.5,0.8,3c0.5,0.5,1.5,0.8,3,0.8h58.9v11.1H-3759.6
			z"/>
		<path d="M-3688.2-1040v-60.7c0-3.7,1.3-6.9,3.9-9.5c2.6-2.6,5.8-3.9,9.5-3.9h47.2c3.7,0,6.9,1.3,9.5,3.9c2.6,2.6,4,5.8,4,9.5v60.7
			h-11.2v-25.9h-51.7v25.9H-3688.2z M-3677.1-1077.1h51.7v-22.1c0-1.5-0.2-2.5-0.7-3c-0.5-0.5-1.5-0.8-3.1-0.8h-44.1
			c-1.5,0-2.5,0.3-3,0.8c-0.5,0.5-0.8,1.5-0.8,3V-1077.1z"/>
		<path d="M-3602.4-1040v-74.1h13.3l49.6,59v-59h11.2v74.1h-13.3l-49.7-59.1v59.1H-3602.4z"/>
		<path d="M-3503.4-1040c-3.7,0-6.9-1.3-9.5-3.9c-2.6-2.6-3.9-5.8-3.9-9.5v-47.3c0-3.7,1.3-6.9,3.9-9.5c2.6-2.6,5.8-3.9,9.5-3.9
			h60.5v11.1h-58.9c-1.5,0-2.5,0.3-3,0.8c-0.5,0.5-0.8,1.5-0.8,3v44.2c0,1.5,0.3,2.5,0.8,3c0.5,0.5,1.5,0.8,3,0.8h58.9v11.1H-3503.4
			z"/>
		<path d="M-3432.1-1040v-74.1h67.9v11.1h-56.7v20.4h45.6v11.1h-45.6v20.4h56.7v11.1H-3432.1z"/>
	</g>
	<g>
		<path d="M-3683.5-950v-51.7h7.8v51.7H-3683.5z"/>
		<path d="M-3647.9-950v-44h-22v-7.8h51.7v7.8h-22v44H-3647.9z"/>
	</g>
</g>
</svg>
